<?xml version="1.0" standalone="no"?>
<!DOCTYPE svg PUBLIC "-//W3C//DTD SVG 20010904//EN"
 "http://www.w3.org/TR/2001/REC-SVG-20010904/DTD/svg10.dtd">
<svg version="1.0" xmlns="http://www.w3.org/2000/svg"
 width="289.000000pt" height="289.000000pt" viewBox="0 0 289.000000 289.000000"
 preserveAspectRatio="xMidYMid meet">
<metadata>
Created by potrace 1.14, written by Peter Selinger 2001-2017
</metadata>
<g transform="translate(0.000000,289.000000) scale(0.100000,-0.100000)"
fill="#000000" stroke="none">
<path d="M1210 2661 c0 -6 5 -13 10 -16 6 -3 10 1 10 9 0 9 -4 16 -10 16 -5 0
-10 -4 -10 -9z"/>
<path d="M1226 2593 c-6 -14 -5 -15 5 -6 7 7 10 15 7 18 -3 3 -9 -2 -12 -12z"/>
<path d="M1325 2570 c-3 -5 1 -10 9 -10 9 0 16 5 16 10 0 6 -4 10 -9 10 -6 0
-13 -4 -16 -10z"/>
<path d="M1140 2560 c0 -5 5 -10 10 -10 6 0 10 5 10 10 0 6 -4 10 -10 10 -5 0
-10 -4 -10 -10z"/>
<path d="M1091 2542 c-6 -11 -7 -22 -4 -26 3 -3 1 -6 -5 -6 -7 0 -12 -4 -12
-10 0 -5 7 -10 15 -10 8 0 15 5 15 11 0 7 7 17 16 23 14 11 14 13 1 25 -13 10
-17 9 -26 -7z"/>
<path d="M1170 2550 c0 -5 5 -10 11 -10 5 0 7 5 4 10 -3 6 -8 10 -11 10 -2 0
-4 -4 -4 -10z"/>
<path d="M1253 2547 c-3 -5 -3 -11 0 -14 8 -7 47 7 47 17 0 11 -40 9 -47 -3z"/>
<path d="M1446 2524 c-10 -7 -23 -11 -28 -8 -4 3 -11 -2 -15 -12 -6 -16 -7
-15 -20 2 -12 17 -13 17 -13 -4 0 -12 -6 -22 -14 -22 -7 0 -26 -10 -42 -22
-15 -13 -25 -18 -21 -11 4 6 0 14 -9 17 -10 4 -13 2 -8 -7 6 -9 4 -9 -7 -1
-19 15 -49 14 -49 -2 0 -8 7 -11 18 -8 9 3 6 -1 -8 -9 -22 -13 -26 -13 -37 2
-12 15 -13 14 -11 -3 2 -15 -9 -22 -62 -37 -69 -19 -92 -18 -44 2 22 9 25 13
12 16 -19 5 -60 -31 -50 -43 4 -4 0 -3 -8 2 -20 11 -32 12 -46 2 -7 -5 -14 -3
-17 6 -4 10 -1 13 8 10 7 -3 23 4 35 16 18 18 20 24 9 31 -11 7 -11 9 -1 9 10
0 10 5 1 22 l-12 22 -18 -23 c-11 -13 -19 -31 -19 -42 0 -10 -5 -21 -11 -24
-6 -4 -8 -14 -4 -22 4 -12 2 -13 -8 -5 -10 9 -17 8 -26 -1 -9 -9 -14 -9 -21 3
-7 10 -10 11 -10 3 0 -7 -7 -13 -16 -13 -10 0 -14 -6 -11 -14 3 -7 -3 -27 -13
-43 -14 -23 -25 -30 -46 -29 -16 1 -36 -6 -47 -17 -11 -11 -27 -17 -38 -14
-26 7 -24 0 8 -27 15 -13 23 -28 19 -35 -5 -8 -14 -4 -28 14 -22 28 -41 34
-31 9 4 -10 -1 -17 -16 -21 -15 -4 -23 -16 -27 -43 -4 -22 -11 -37 -18 -35 -6
3 -20 -2 -31 -11 -16 -12 -17 -17 -7 -23 11 -7 10 -10 -3 -15 -9 -3 -14 -10
-10 -15 3 -6 -2 -14 -11 -19 -15 -8 -15 -10 1 -15 9 -4 13 -12 10 -17 -5 -8
-12 -7 -23 2 -13 11 -15 10 -10 -9 4 -16 2 -23 -9 -23 -11 0 -14 -7 -9 -27 6
-25 5 -26 -7 -10 -8 9 -21 17 -30 17 -9 0 -19 5 -22 10 -4 7 3 9 20 6 15 -3
24 -2 20 2 -6 7 -10 8 -36 11 -5 0 -7 7 -3 14 4 6 -9 -4 -27 -23 -19 -19 -33
-39 -31 -44 3 -4 8 -3 12 4 5 8 10 9 14 2 3 -6 2 -13 -3 -16 -5 -3 -7 -16 -4
-29 5 -21 5 -21 -9 -3 -9 11 -18 15 -21 9 -4 -5 5 -16 18 -23 33 -17 32 -29
-1 -22 -26 5 -26 5 -9 -22 16 -24 16 -26 1 -26 -10 0 -14 5 -11 10 3 6 2 10
-4 10 -11 0 -4 -64 10 -92 6 -10 5 -18 -3 -20 -18 -6 9 -66 33 -73 11 -4 40
-22 64 -41 25 -19 51 -34 58 -34 6 0 34 16 61 35 60 42 82 46 41 6 -16 -16
-33 -27 -36 -25 -3 2 -17 -8 -30 -23 -17 -18 -20 -27 -11 -30 7 -3 23 -15 36
-27 23 -22 81 -56 96 -56 12 0 7 33 -8 48 -6 7 -12 27 -13 43 -1 16 -2 48 -3
72 0 23 3 45 8 49 5 3 11 17 14 30 2 13 5 28 6 34 1 6 10 23 19 37 10 15 14
27 10 27 -4 0 2 7 14 15 11 8 24 26 27 40 4 14 13 25 21 25 8 0 12 6 9 13 -2
7 5 22 16 34 11 12 20 26 20 32 0 11 25 21 56 21 13 0 24 2 24 5 0 6 -46 59
-87 100 -12 13 -19 26 -16 29 4 3 -1 7 -10 7 -36 3 -40 4 -44 17 -3 6 1 12 8
12 7 0 2 11 -11 25 -13 14 -20 28 -16 32 4 5 18 -5 31 -21 16 -20 39 -32 76
-41 45 -11 46 -22 1 -16 -12 2 -13 -18 -2 -29 3 -3 17 -21 30 -40 36 -53 60
-65 60 -31 0 23 28 54 41 46 5 -4 9 -1 9 4 0 6 7 11 15 11 8 0 15 5 15 11 0 5
5 7 10 4 6 -3 13 1 16 9 3 9 12 16 20 16 8 0 14 5 14 11 0 5 4 8 8 5 5 -3 18
2 28 12 27 25 77 46 69 30 -4 -7 0 -5 8 4 11 14 16 15 27 5 8 -8 11 -8 7 -1
-4 7 5 20 19 29 15 9 23 12 19 6 -8 -14 31 -11 54 3 11 7 12 6 6 -5 -7 -11 -5
-11 11 1 10 8 28 23 38 34 13 12 21 15 24 8 5 -16 32 -15 32 0 0 9 3 9 11 1
12 -12 39 -7 39 8 0 5 -3 8 -7 7 -11 -2 -85 43 -80 49 3 2 21 -3 41 -11 20 -8
37 -14 39 -13 1 1 13 -6 27 -16 33 -23 40 -22 40 6 0 18 -17 35 -70 71 -38 27
-70 52 -70 56 0 7 77 -27 90 -40 3 -3 16 -6 30 -8 24 -3 25 -1 23 50 -1 29 -2
70 -2 91 -1 28 -4 36 -13 30 -18 -10 -62 -12 -68 -3 -3 5 -14 2 -24 -6z m-546
-260 c0 -8 -19 -13 -24 -6 -3 5 1 9 9 9 8 0 15 -2 15 -3z m-230 -188 c0 -2 -7
-9 -15 -16 -13 -11 -14 -10 -9 4 5 14 24 23 24 12z m-62 -56 c-7 -10 -14 -18
-15 -16 -6 6 9 36 18 36 5 0 4 -9 -3 -20z m-134 -105 c-3 -13 -1 -26 5 -29 7
-5 11 4 11 24 0 19 4 29 10 25 14 -9 7 -54 -11 -67 -11 -7 -9 -9 9 -5 14 3 22
0 22 -8 0 -9 -8 -11 -22 -7 -27 7 -68 42 -49 42 9 0 12 10 9 29 -3 21 -1 28 9
24 8 -3 11 -14 7 -28z"/>
<path d="M1580 2488 c-8 -164 -5 -230 13 -257 15 -21 17 -22 13 -5 -5 14 -2
21 9 21 8 0 15 -4 15 -8 0 -5 6 -6 13 -3 7 2 26 -2 42 -10 18 -10 32 -12 35
-5 4 5 16 1 30 -11 13 -11 29 -20 35 -20 7 0 18 -6 24 -13 6 -8 28 -19 50 -26
22 -6 54 -25 71 -41 18 -17 36 -30 41 -30 5 0 9 -4 9 -10 0 -5 5 -10 10 -10
18 0 51 -36 53 -58 0 -11 4 -19 8 -16 4 2 3 20 -1 39 -6 25 -4 35 4 35 6 0 13
-14 14 -32 2 -18 4 -34 6 -36 5 -5 76 90 77 102 1 13 -82 57 -93 49 -6 -3 -7
-21 -3 -39 3 -21 2 -34 -5 -34 -5 0 -10 3 -11 8 0 4 -2 14 -4 22 -16 77 -12
88 23 67 6 -5 12 -6 12 -3 0 3 23 -6 52 -19 29 -13 54 -23 55 -21 2 2 6 33 8
70 5 59 3 66 -13 66 -11 0 -18 8 -19 20 -1 13 2 18 10 13 7 -4 7 -1 -1 10 -8
9 -11 20 -8 26 3 5 0 11 -7 14 -8 3 -19 -4 -25 -14 -14 -23 -32 -25 -32 -4 0
8 5 15 12 15 6 0 9 2 6 5 -3 3 -16 2 -29 -3 -18 -6 -28 -4 -41 9 -9 9 -15 19
-13 21 2 2 -4 10 -13 18 -14 13 -15 12 -9 -4 6 -14 4 -17 -9 -12 -8 3 -23 6
-32 6 -14 0 -15 2 -2 10 12 8 12 10 -2 15 -10 4 -22 4 -28 0 -19 -11 -31 5
-15 21 24 24 18 36 -9 18 -15 -9 -22 -21 -19 -30 3 -9 -1 -14 -13 -14 -11 0
-15 4 -9 8 16 12 16 32 0 32 -8 0 -15 5 -15 11 0 6 -9 8 -21 4 -15 -5 -19 -4
-15 4 4 6 3 11 -2 11 -6 0 -13 -7 -16 -16 -3 -8 -11 -12 -17 -9 -6 4 -8 13 -6
20 4 8 -3 12 -16 10 -12 0 -31 3 -42 9 -11 6 -24 10 -28 11 -4 0 -11 5 -15 10
-4 6 -22 11 -41 11 -18 1 -36 7 -40 13 -4 7 -9 -12 -11 -41z"/>
<path d="M1010 2510 c-13 -8 -12 -10 3 -10 9 0 17 5 17 10 0 12 -1 12 -20 0z"/>
<path d="M1171 2489 c-12 -16 -20 -35 -17 -42 2 -7 5 -4 5 6 1 10 5 16 9 13 5
-3 19 5 33 17 14 12 23 21 20 20 -2 -2 -9 2 -16 7 -8 7 -18 0 -34 -21z"/>
<path d="M1095 2459 c-5 -7 -1 -16 9 -21 9 -5 14 -13 11 -19 -4 -5 -2 -9 4 -9
14 0 8 53 -6 57 -6 2 -14 -1 -18 -8z"/>
<path d="M2045 2371 c-3 -5 -2 -12 3 -15 5 -3 9 1 9 9 0 17 -3 19 -12 6z"/>
<path d="M1500 2250 c0 -6 7 -10 15 -10 8 0 15 2 15 4 0 2 -7 6 -15 10 -8 3
-15 1 -15 -4z"/>
<path d="M1650 2209 c0 -5 5 -7 10 -4 6 3 10 8 10 11 0 2 -4 4 -10 4 -5 0 -10
-5 -10 -11z"/>
<path d="M2201 2170 c-1 -27 0 -50 2 -50 1 0 21 19 42 41 33 35 36 41 16 34
-18 -5 -22 -4 -16 6 6 9 4 11 -7 6 -9 -3 -20 -1 -25 4 -6 6 -10 -8 -12 -41z"/>
<path d="M2177 2067 c-94 -97 -106 -113 -90 -120 16 -7 56 -66 59 -86 2 -16
28 -61 36 -61 4 0 6 -18 4 -40 -2 -26 1 -46 10 -55 10 -10 12 -20 4 -39 -5
-14 -6 -26 -2 -26 4 0 6 -18 4 -40 -3 -25 0 -40 7 -40 6 0 11 5 11 12 0 6 3 9
6 5 3 -3 14 2 23 11 10 10 35 32 57 50 l39 32 37 -42 c21 -24 38 -49 38 -55 0
-7 7 -13 15 -13 8 0 15 -5 15 -11 0 -6 7 -8 16 -5 12 4 14 1 9 -14 -4 -11 -2
-20 4 -20 6 0 11 -7 11 -16 0 -8 4 -13 9 -10 5 4 11 1 13 -5 2 -5 3 12 3 40 0
33 -3 46 -10 41 -6 -5 -16 -6 -23 -2 -8 5 -2 15 18 32 29 24 29 24 8 41 -11
10 -17 23 -13 30 4 6 1 16 -6 21 -11 8 -10 9 3 4 10 -3 20 -1 23 4 4 6 2 10
-4 10 -6 0 -7 7 -4 17 4 11 3 14 -5 9 -7 -4 -12 -1 -12 8 0 8 -4 16 -10 18 -5
2 -11 17 -13 33 -2 17 -11 47 -20 69 -9 21 -17 40 -17 42 0 2 -9 13 -21 25
-15 15 -17 24 -10 33 8 9 5 19 -10 35 -13 14 -19 31 -17 46 3 15 0 26 -10 30
-11 4 -13 0 -9 -15 8 -29 2 -25 -31 25 -16 24 -32 42 -36 38 -3 -3 -6 -1 -6 5
0 7 3 12 8 12 4 0 7 11 7 25 0 14 -2 25 -5 24 -3 0 -54 -50 -113 -112z"/>
<path d="M520 2151 c0 -5 5 -13 10 -16 6 -3 10 -2 10 4 0 5 -4 13 -10 16 -5 3
-10 2 -10 -4z"/>
<path d="M1165 2140 c-3 -5 -1 -10 4 -10 6 0 11 5 11 10 0 6 -2 10 -4 10 -3 0
-8 -4 -11 -10z"/>
<path d="M440 2050 c0 -13 18 -22 24 -11 3 5 -1 11 -9 15 -8 3 -15 1 -15 -4z"/>
<path d="M975 2030 c3 -5 8 -10 11 -10 2 0 4 5 4 10 0 6 -5 10 -11 10 -5 0 -7
-4 -4 -10z"/>
<path d="M411 2020 c-10 -5 -10 -9 -2 -14 6 -4 9 -11 7 -15 -3 -4 -1 -12 3
-19 4 -7 11 -1 18 18 12 31 -1 46 -26 30z"/>
<path d="M2450 1901 c0 -12 5 -21 10 -21 6 0 10 6 10 14 0 8 -4 18 -10 21 -5
3 -10 -3 -10 -14z"/>
<path d="M304 1821 c0 -11 5 -17 13 -14 10 4 11 9 2 19 -15 18 -15 18 -15 -5z"/>
<path d="M350 1790 c0 -5 7 -10 16 -10 8 0 12 5 9 10 -3 6 -10 10 -16 10 -5 0
-9 -4 -9 -10z"/>
<path d="M2530 1684 c0 -8 5 -12 10 -9 6 4 8 11 5 16 -9 14 -15 11 -15 -7z"/>
<path d="M355 1650 c-3 -5 -12 -7 -20 -3 -8 3 -15 -1 -15 -8 0 -7 3 -10 6 -7
11 12 57 -9 60 -26 2 -13 -3 -17 -15 -13 -16 4 -17 2 -5 -22 17 -34 24 -100
13 -127 -5 -16 -4 -24 7 -28 8 -3 14 -2 14 3 0 5 19 21 42 37 79 55 98 75 83
91 -8 7 -16 13 -20 13 -3 0 -15 8 -25 18 -11 10 -42 30 -69 44 -28 14 -47 28
-44 32 4 3 4 6 0 6 -3 0 -8 -4 -12 -10z"/>
<path d="M2340 1644 c0 -6 -19 -25 -42 -42 -90 -66 -86 -56 -36 -104 92 -89
80 -85 132 -32 45 46 56 64 36 64 -5 0 -10 6 -10 14 0 8 -7 16 -15 20 -8 3
-15 12 -15 21 0 8 -3 15 -8 15 -4 0 -15 12 -24 28 -10 15 -18 22 -18 16z"/>
<path d="M2185 1500 c0 -19 4 -41 9 -48 4 -7 1 -15 -9 -18 -14 -6 -14 -8 1
-19 15 -11 15 -12 -4 -18 -25 -6 -44 -46 -31 -63 6 -7 4 -16 -6 -24 -8 -7 -15
-18 -15 -24 0 -6 -11 -32 -24 -58 -17 -34 -21 -49 -12 -58 6 -6 7 -10 1 -8
-13 4 -47 -29 -64 -64 -10 -19 -18 -25 -26 -18 -8 7 -11 -3 -10 -35 0 -25 -3
-45 -8 -45 -4 0 -6 -4 -3 -9 3 -5 8 -34 11 -65 6 -70 9 -75 40 -71 14 1 25 -3
25 -8 0 -7 4 -7 12 1 6 6 18 8 27 3 14 -7 34 -7 100 -2 7 1 11 7 7 16 -3 8 -2
14 2 14 25 -4 34 3 29 21 -3 12 -1 17 5 14 13 -9 45 23 53 53 5 21 8 23 22 11
15 -12 15 -11 5 8 -11 21 -7 34 11 34 5 0 7 -6 4 -13 -3 -8 1 -14 8 -14 13 0
13 13 0 52 -5 14 -4 16 3 7 7 -10 13 -7 26 13 9 14 14 30 11 35 -3 6 -2 10 3
10 5 0 9 8 9 18 0 36 4 43 21 40 13 -2 16 3 14 26 -3 18 0 26 7 22 14 -9 14 0
-1 23 -9 15 -9 26 2 48 7 15 14 32 14 37 1 11 26 21 26 11 0 -11 -23 -50 -34
-57 -8 -6 -8 -8 0 -8 19 0 47 51 46 83 0 20 3 27 13 23 10 -4 11 2 5 25 -5 17
-5 29 1 29 5 0 0 10 -11 23 -10 12 -25 30 -32 40 -13 17 -18 14 -64 -41 -49
-58 -50 -59 -74 -43 -14 9 -45 34 -69 56 -23 22 -51 47 -60 56 -16 14 -17 13
-16 -21z m-110 -410 c3 -5 1 -10 -4 -10 -6 0 -11 5 -11 10 0 6 2 10 4 10 3 0
8 -4 11 -10z"/>
<path d="M540 1501 c0 -6 -4 -11 -10 -11 -15 0 -60 -42 -55 -50 3 -4 -11 -18
-30 -31 -36 -25 -44 -39 -22 -39 6 0 4 -5 -6 -11 -18 -10 -18 -11 0 -25 10 -7
14 -14 10 -14 -4 0 -3 -9 3 -20 6 -11 13 -35 15 -53 2 -17 9 -33 14 -35 5 -2
8 -9 5 -17 -3 -7 0 -16 5 -20 6 -3 9 -11 6 -16 -10 -15 12 -10 29 7 12 12 16
12 17 2 0 -7 2 -23 5 -35 2 -13 -1 -23 -8 -23 -6 0 -8 3 -5 7 9 9 -13 34 -24
27 -5 -3 -2 -15 6 -27 8 -12 15 -32 15 -44 0 -13 3 -23 8 -23 4 0 15 -14 24
-30 9 -17 13 -30 8 -30 -6 0 -10 4 -10 9 0 18 -40 23 -55 8 -13 -13 -12 -17
10 -31 19 -12 25 -13 25 -4 0 9 3 10 8 2 4 -6 15 -10 25 -8 9 1 17 -4 17 -12
0 -8 7 -11 18 -8 13 5 14 4 3 -4 -8 -6 -11 -17 -8 -26 3 -8 2 -18 -4 -21 -5
-4 -3 -13 6 -21 8 -9 13 -20 10 -25 -4 -5 -2 -9 4 -9 5 0 16 -7 24 -15 16 -15
26 -7 154 113 19 17 37 32 39 32 2 0 13 8 25 18 72 60 74 62 58 62 -9 0 -24
11 -32 24 -9 13 -22 30 -31 38 -8 9 -29 42 -47 74 -75 139 -74 135 -78 199 -1
12 -18 31 -44 47 -23 15 -51 35 -63 46 -25 24 -64 38 -64 23z"/>
<path d="M429 1419 l-24 -20 30 17 c39 24 40 24 28 24 -6 0 -21 -9 -34 -21z"/>
<path d="M2535 1320 c-3 -5 -1 -10 4 -10 6 0 11 5 11 10 0 6 -2 10 -4 10 -3 0
-8 -4 -11 -10z"/>
<path d="M425 1170 c-3 -5 -1 -10 4 -10 6 0 11 5 11 10 0 6 -2 10 -4 10 -3 0
-8 -4 -11 -10z"/>
<path d="M467 1106 c-3 -8 -2 -18 3 -21 13 -8 24 15 12 27 -6 6 -11 4 -15 -6z"/>
<path d="M2440 1070 c0 -5 5 -10 10 -10 6 0 10 5 10 10 0 6 -4 10 -10 10 -5 0
-10 -4 -10 -10z"/>
<path d="M919 1038 c-4 -17 -4 -96 0 -93 3 1 7 -12 8 -31 2 -19 1 -34 -2 -34
-5 0 -26 74 -28 101 -2 24 -1 24 -30 -5 -15 -15 -22 -32 -20 -49 2 -14 -1 -28
-7 -32 -5 -3 -11 -1 -11 4 -1 6 -3 16 -4 21 -1 6 -3 13 -4 17 0 5 -19 -11 -41
-35 -22 -23 -43 -42 -47 -42 -5 0 -19 -12 -32 -25 -13 -14 -27 -25 -31 -25 -4
0 -10 -7 -14 -15 -4 -13 -2 -13 14 -5 26 14 40 12 40 -5 0 -9 12 -18 29 -21
16 -4 34 -17 42 -30 8 -16 16 -21 23 -14 6 6 16 4 28 -7 10 -9 18 -12 18 -8 0
5 11 -2 25 -15 14 -13 25 -20 25 -16 0 4 14 -2 30 -14 39 -28 38 -39 -4 -34
-27 2 -34 0 -30 -11 6 -14 -5 -14 -58 2 -13 3 -42 6 -65 6 -24 1 -43 4 -43 8
0 3 -11 7 -24 7 -17 0 -23 -5 -19 -15 4 -9 0 -13 -8 -12 -8 2 -25 -2 -39 -9
-24 -13 -24 -13 -5 4 20 16 20 16 -3 11 -19 -4 -22 -2 -18 10 5 12 4 13 -7 5
-8 -7 -16 -11 -18 -9 -2 1 3 -4 11 -11 13 -11 13 -14 0 -22 -8 -5 -19 -10 -25
-10 -5 0 -4 4 3 9 11 6 11 10 0 18 -19 15 -67 22 -71 10 -2 -6 -13 -11 -25
-12 -11 -1 -19 1 -17 5 2 3 -5 12 -17 19 -11 7 -18 9 -15 4 3 -4 -1 -14 -9
-20 -8 -9 -15 -9 -19 -2 -5 6 -12 6 -23 -3 -13 -11 -15 -10 -9 5 6 16 2 17
-32 13 -21 -2 -49 1 -62 8 -19 10 -28 10 -45 -1 -18 -11 -24 -11 -45 5 -27 21
-79 37 -79 24 0 -5 12 -15 28 -23 15 -8 31 -20 35 -27 5 -7 12 -10 18 -7 5 4
9 1 9 -4 0 -15 -11 -13 -34 4 -25 19 -36 19 -36 -1 0 -8 4 -12 10 -9 5 3 10 1
10 -4 0 -6 9 -11 20 -11 11 0 20 -5 20 -11 0 -5 4 -8 9 -4 5 3 16 -2 24 -10 9
-8 20 -15 26 -15 6 0 11 -3 11 -7 0 -5 14 -9 32 -10 18 -1 36 -10 41 -18 5
-10 16 -14 28 -10 11 4 27 1 36 -7 9 -7 14 -8 11 -3 -4 6 2 11 12 11 10 0 16
-4 14 -8 -3 -4 3 -9 13 -10 10 0 23 -2 30 -2 7 -1 18 -7 25 -14 9 -9 8 -12 -7
-12 -11 0 -26 -4 -33 -9 -8 -5 3 -7 30 -6 24 2 43 4 43 5 0 1 8 3 18 5 9 2 15
-1 11 -6 -3 -5 -10 -7 -15 -4 -5 3 -6 0 -3 -8 3 -9 13 -13 25 -10 12 3 19 0
19 -8 1 -9 4 -8 11 4 9 16 13 17 27 4 10 -8 24 -18 32 -22 13 -8 13 -7 0 10
-14 17 -14 17 5 8 11 -6 31 -11 45 -11 14 0 32 -1 40 -3 8 -1 28 -1 44 -1 21
2 27 6 22 18 -3 9 -2 12 5 9 6 -4 8 -13 5 -20 -2 -7 2 -16 10 -19 8 -3 12 -2
9 3 -3 5 -1 12 5 16 5 3 10 2 10 -3 0 -9 201 -9 216 1 5 2 25 3 44 2 19 -2 38
1 41 6 3 5 23 11 45 12 21 1 45 8 53 15 11 11 17 10 33 -4 18 -17 18 -17 12
-1 -5 15 -3 16 17 9 13 -5 29 -7 35 -5 6 2 15 -7 21 -19 8 -17 11 24 12 161 0
101 -2 187 -5 192 -3 5 -11 6 -17 2 -19 -12 -37 -12 -37 -1 0 6 -7 7 -16 4 -8
-3 -29 4 -47 17 -18 13 -52 32 -77 42 -25 10 -51 23 -59 29 -7 6 -19 11 -26
12 -8 1 -24 11 -36 23 -12 11 -31 23 -41 27 -10 3 -18 9 -18 13 0 5 -18 20
-41 35 -25 17 -39 33 -35 41 3 8 1 17 -4 20 -6 4 -10 5 -11 3z m-69 -178 c0
-11 -2 -20 -4 -20 -2 0 -6 9 -9 20 -3 11 -1 20 4 20 5 0 9 -9 9 -20z m-590
-250 c8 -5 12 -11 10 -14 -3 -2 -14 2 -24 10 -22 15 -10 19 14 4z m260 -20
c-24 -15 -36 -11 -14 4 10 8 21 12 24 10 2 -3 -2 -9 -10 -14z m-207 -16 c-16
-12 -16 -15 -3 -24 13 -8 13 -10 -1 -10 -10 0 -19 10 -21 24 -4 17 -1 23 9 19
7 -3 13 0 13 7 0 6 5 8 11 5 6 -5 4 -12 -8 -21z m88 -41 c-11 -5 -11 -7 0 -14
10 -6 7 -8 -8 -6 -17 1 -19 4 -11 14 6 7 16 13 22 12 6 0 5 -3 -3 -6z m64 -22
c-6 -5 -25 10 -25 20 0 5 6 4 14 -3 8 -7 12 -15 11 -17z"/>
<path d="M1955 1030 c-3 -5 -3 -10 0 -10 3 0 -27 -29 -67 -65 -40 -36 -79 -65
-85 -65 -7 0 -13 -4 -13 -10 0 -5 -7 -10 -15 -10 -9 0 -20 -11 -26 -24 -7 -14
-17 -22 -24 -20 -7 3 -19 -2 -28 -10 -8 -8 -17 -12 -21 -9 -3 3 -12 1 -19 -5
-8 -7 -17 -8 -22 -4 -4 4 -5 -3 -2 -15 6 -26 4 -27 -23 -11 -15 10 -22 9 -37
-4 -10 -9 -32 -21 -48 -27 -28 -10 -29 -10 -11 4 21 16 15 19 -31 17 -13 -1
-23 2 -23 6 0 4 -13 8 -30 8 -16 1 -30 -2 -30 -6 0 -4 25 -24 55 -46 30 -21
54 -43 55 -48 0 -5 8 -15 18 -22 10 -8 12 -13 5 -14 -7 0 -21 8 -31 18 -10 9
-36 31 -58 49 l-41 31 5 -71 c2 -40 6 -74 8 -76 2 -2 21 1 41 7 21 6 42 11 46
11 4 0 15 7 23 16 18 17 34 20 34 5 0 -5 -7 -10 -15 -10 -8 0 -15 -4 -15 -9 0
-5 -25 -17 -55 -26 -30 -10 -55 -21 -55 -24 0 -7 37 -41 44 -41 10 0 68 -61
63 -66 -7 -8 -57 26 -57 39 0 6 -3 7 -7 4 -3 -4 -16 4 -29 18 -26 28 -30 22
-33 -54 -2 -49 -1 -52 14 -37 9 9 22 16 30 16 7 0 15 6 18 13 3 9 7 9 18 1 8
-7 26 -10 42 -8 15 1 27 -2 27 -7 0 -6 5 -7 10 -4 8 5 7 11 -1 21 -7 8 -7 14
-1 14 5 0 12 -6 15 -14 3 -7 19 -18 37 -24 18 -7 28 -7 25 -2 -7 12 8 13 19 2
7 -7 11 -8 37 -11 5 0 7 -7 3 -13 -5 -9 -2 -9 9 1 11 9 17 10 17 2 0 -7 9 -6
25 5 24 15 25 15 25 -2 0 -15 2 -16 9 -5 5 8 7 21 4 30 -4 13 -3 14 5 2 6 -8
9 -23 7 -33 -5 -26 4 -22 14 5 9 24 28 27 64 12 21 -9 22 -25 1 -25 -8 0 -13
-3 -10 -8 2 -4 80 -7 173 -6 92 0 173 -3 180 -8 7 -6 14 -4 19 3 5 8 3 10 -7
4 -12 -7 -12 -5 -1 6 11 12 14 12 21 0 6 -9 18 -12 37 -7 16 4 31 8 34 8 3 0
14 4 26 8 22 9 89 18 170 25 31 2 51 0 56 -8 5 -8 8 -7 8 5 0 9 3 23 6 32 4
12 0 16 -15 16 -12 0 -21 -4 -21 -10 0 -5 -15 -8 -32 -6 -18 2 -42 -1 -53 -6
-20 -9 -20 -9 -1 6 11 9 30 16 43 16 13 0 23 5 23 10 0 10 43 4 65 -9 16 -9
55 -9 55 1 0 4 -11 8 -24 8 -13 0 -26 6 -29 14 -4 10 -16 13 -34 11 -15 -2
-28 -4 -28 -5 0 -1 -21 -3 -47 -5 -27 -1 -54 -9 -63 -19 -17 -16 -40 -23 -31
-8 3 5 -18 5 -47 1 -29 -3 -54 -5 -56 -3 -9 8 10 18 37 19 39 2 102 25 102 37
0 6 6 8 14 5 8 -3 20 0 26 8 6 7 20 11 30 8 11 -3 20 -1 20 4 0 5 10 9 23 8
12 -1 27 0 32 4 18 10 75 10 75 -1 0 -6 13 3 29 19 21 22 29 41 29 67 0 20 -5
39 -10 42 -6 4 -8 -2 -3 -16 5 -15 4 -20 -4 -16 -6 4 -18 1 -25 -7 -10 -10
-34 -13 -78 -12 -35 2 -64 4 -65 5 -2 1 -11 3 -20 4 -10 1 -34 7 -53 14 -19 6
-49 13 -67 15 -17 2 -38 9 -47 16 -10 8 -16 9 -21 1 -3 -6 -11 -8 -16 -4 -5 3
-16 0 -24 -6 -11 -10 -15 -10 -15 -1 0 7 -5 9 -10 6 -6 -4 -16 -2 -23 3 -7 6
-25 11 -42 13 -16 2 -35 7 -42 12 -6 4 -14 3 -19 -4 -4 -8 -3 -9 5 -5 6 4 14
0 17 -8 3 -9 13 -16 22 -16 12 0 13 -3 4 -12 -12 -12 -144 -21 -175 -12 -9 3
-14 10 -11 16 4 6 10 5 16 -3 7 -10 8 -8 3 8 -4 13 -1 25 8 30 7 4 17 16 20
26 4 10 11 15 17 12 5 -3 21 5 35 19 14 14 25 23 25 20 0 -3 12 4 26 15 15 11
31 18 38 14 6 -3 8 -2 3 2 -4 5 -24 10 -45 11 -115 8 -156 15 -163 26 -5 7 -4
15 2 16 6 3 6 9 -2 18 -7 9 -7 14 -1 14 6 0 7 12 3 33 -4 17 -6 49 -5 70 4 37
0 45 -11 27z m416 -400 c10 -6 40 -13 65 -15 25 -2 49 -7 52 -11 4 -4 -3 -4
-15 -1 -13 3 -23 1 -23 -5 0 -5 -4 -6 -10 -3 -5 3 -18 1 -28 -4 -11 -6 -22 -7
-26 -4 -10 11 -36 12 -36 2 0 -5 -11 -8 -25 -7 -14 1 -25 6 -25 11 0 5 -9 5
-21 2 -16 -5 -20 -3 -17 10 2 12 15 19 37 21 19 3 37 6 39 9 7 7 11 6 33 -5z
m-451 -206 c0 -12 -2 -12 -14 -2 -8 7 -12 16 -9 21 7 11 23 -2 23 -19z"/>
<path d="M2435 1020 c-3 -5 -1 -10 4 -10 6 0 11 5 11 10 0 6 -2 10 -4 10 -3 0
-8 -4 -11 -10z"/>
<path d="M776 685 c15 -13 30 -22 32 -20 3 2 14 0 26 -6 20 -10 20 -10 2 5
-11 9 -25 16 -32 16 -6 0 -14 7 -18 15 -3 8 -13 15 -22 15 -13 0 -10 -6 12
-25z"/>
<path d="M185 650 c3 -5 16 -10 28 -9 21 0 21 1 2 9 -28 12 -37 12 -30 0z"/>
<path d="M100 586 c0 -3 9 -10 20 -16 11 -6 20 -8 20 -6 0 3 -9 10 -20 16 -11
6 -20 8 -20 6z"/>
<path d="M190 530 c0 -6 7 -10 15 -10 8 0 15 2 15 4 0 2 -7 6 -15 10 -8 3 -15
1 -15 -4z"/>
<path d="M2735 490 c-3 -5 -1 -10 4 -10 6 0 11 5 11 10 0 6 -2 10 -4 10 -3 0
-8 -4 -11 -10z"/>
<path d="M425 460 c27 -12 43 -12 25 0 -8 5 -22 9 -30 9 -10 0 -8 -3 5 -9z"/>
<path d="M2700 450 c0 -5 7 -7 15 -4 8 4 15 8 15 10 0 2 -7 4 -15 4 -8 0 -15
-4 -15 -10z"/>
<path d="M965 360 c3 -5 8 -10 11 -10 2 0 4 5 4 10 0 6 -5 10 -11 10 -5 0 -7
-4 -4 -10z"/>
<path d="M1699 343 c-12 -16 -12 -17 2 -6 9 7 19 10 22 6 4 -3 7 -1 7 5 0 17
-16 15 -31 -5z"/>
</g>
</svg>
